<?xml version="1.0" standalone="no"?><!DOCTYPE svg PUBLIC "-//W3C//DTD SVG 1.1//EN" "http://www.w3.org/Graphics/SVG/1.1/DTD/svg11.dtd"><svg t="1634979286427" class="icon" viewBox="0 0 1024 1024" version="1.1" xmlns="http://www.w3.org/2000/svg" p-id="19331" xmlns:xlink="http://www.w3.org/1999/xlink" width="200" height="200"><defs><style type="text/css"></style></defs><path d="M819.2 512v281.6c0 28.16-23.04 51.2-51.2 51.2H253.44c-28.16 0-51.2-23.04-51.2-51.2L204.8 281.6c0-28.16 23.04-51.2 51.2-51.2h281.6V179.2H256c-56.32 0-102.4 56.32-102.4 112.64v504.32C153.6 849.92 199.68 896 253.44 896h504.32c56.32 0 112.64-46.08 112.64-102.4V512h-51.2z m-384-51.2c0-15.36-10.24-25.6-25.6-25.6s-25.6 10.24-25.6 25.6v179.2c0 15.36 10.24 25.6 25.6 25.6h179.2c15.36 0 25.6-10.24 25.6-25.6s-10.24-25.6-25.6-25.6h-115.2L852.48 235.52c10.24-10.24 10.24-25.6 0-35.84-10.24-10.24-25.6-10.24-35.84 0L435.2 581.12V460.8z" p-id="19332"></path></svg>